<svg width="250" height="172" viewBox="0 0 250 172" fill="none" xmlns="http://www.w3.org/2000/svg">
<rect width="250" height="172" rx="29" fill="white" fill-opacity="0.7"/>
<g opacity="0.4">
<path opacity="0.4" d="M29.0298 96.6745C32.9798 87.056 48.4206 84.132 54.9613 82.901C90.8958 76.1038 110.902 99.1625 129.524 89.2105C140.014 83.619 134.859 75.6935 151.274 61.9455C153.711 59.8935 162.688 52.558 184.233 48.454C201.418 45.1965 217.5 42.1188 221.681 48.8388C226.221 56.1488 210.472 65.1003 209.01 87.21C207.959 103.138 215.141 113.911 210.549 117.143C205.137 120.939 192.621 107.883 186.388 112.321C182.9 114.809 186.131 120.22 183.284 124.504C175.59 136.02 150.889 128.377 108.722 130.019C73.7363 131.378 64.9388 137.636 50.1648 130.019C36.4681 122.991 24.5669 107.576 29.0298 96.6745Z" fill="#A8BBDE"/>
</g>
<path d="M65.5386 95.5673H31.9893V98.9528H65.5386V95.5673Z" fill="#FDD17B"/>
<path d="M53.4574 92.1557H27.9365V95.5415H53.4574V92.1557Z" fill="#FDD17B"/>
<path d="M40.6842 98.953H27.9365V102.339H40.6842V98.953Z" fill="#FDD17B"/>
<path d="M52.0975 95.439H27.5V95.6955H52.0975V95.439Z" fill="#3913B8"/>
<path d="M41.5556 98.8248H34.2969V99.0813H41.5556V98.8248Z" fill="#3913B8"/>
<path d="M32.1169 95.5673H31.8604V98.9528H32.1169V95.5673Z" fill="#3913B8"/>
<path d="M40.8121 92.1557H40.5557V95.5415H40.8121V92.1557Z" fill="#3913B8"/>
<path d="M48.8913 95.5673H48.6348V98.9528H48.8913V95.5673Z" fill="#3913B8"/>
<path d="M34.7587 102.211H27.5V102.467H34.7587V102.211Z" fill="#3913B8"/>
<g opacity="0.4">
<path opacity="0.4" d="M90.717 155.766C117.901 155.766 139.938 154.181 139.938 152.226C139.938 150.272 117.901 148.687 90.717 148.687C63.533 148.687 41.4961 150.272 41.4961 152.226C41.4961 154.181 63.533 155.766 90.717 155.766Z" fill="#A8BBDE"/>
</g>
<g opacity="0.4">
<path opacity="0.4" d="M205.394 155.048L205.24 154.561C206.882 154.048 208.703 154.15 210.473 154.279C212.063 154.381 213.576 154.458 214.961 154.15L215.089 154.637C213.627 154.971 212.012 154.894 210.447 154.792C208.728 154.689 206.959 154.586 205.394 155.048Z" fill="#3913B8"/>
</g>
<g opacity="0.4">
<path opacity="0.4" d="M218.45 156.279H209.19V156.792H218.45V156.279Z" fill="#3913B8"/>
</g>
<g opacity="0.4">
<path opacity="0.4" d="M172.385 154.637C165.1 154.637 163.382 153.791 162.741 153.458C161.099 152.663 160.971 152.226 160.92 152.072C160.868 151.944 160.894 151.79 160.945 151.688C161.176 151.277 161.817 151.252 163.767 151.252C164.305 151.252 164.972 151.226 165.716 151.226C166.87 151.201 168.05 151.175 169.204 151.175C170.153 151.175 171.102 151.149 172.051 151.124H172.103C173.59 151.098 174.847 151.072 175.437 151.688C175.617 151.867 175.847 152.278 175.642 152.663C175.258 153.329 173.744 153.355 172.154 153.304C170.718 153.252 168.409 152.919 168.127 152.534C168.076 152.457 168.05 152.38 168.076 152.278C168.127 151.996 168.178 151.765 173.436 151.944L173.411 152.457C171.077 152.38 169.846 152.38 169.204 152.432C169.897 152.586 171.025 152.765 172.205 152.816C174.488 152.893 175.104 152.663 175.232 152.432C175.309 152.303 175.104 152.072 175.104 152.072C174.668 151.611 173.385 151.637 172.128 151.662H172.077C171.128 151.688 170.179 151.688 169.23 151.714C168.076 151.739 166.896 151.739 165.742 151.765C164.972 151.79 164.331 151.79 163.792 151.79C162.536 151.816 161.535 151.816 161.433 151.97C161.433 152.047 161.74 152.432 162.997 153.047C163.715 153.406 165.896 154.484 176.822 154.073C177.822 154.048 180.157 153.945 182.747 153.124C184.414 152.585 185.286 152.201 185.286 151.97C185.235 151.867 184.722 151.329 178.489 150.79C174.206 150.431 169.743 150.303 165.254 150.38V149.867C169.769 149.764 174.232 149.918 178.541 150.277C185.645 150.867 185.748 151.508 185.799 151.893C185.902 152.586 184.594 153.073 182.901 153.611C180.259 154.458 177.874 154.535 176.848 154.586C175.155 154.612 173.667 154.637 172.385 154.637Z" fill="#3913B8"/>
</g>
<g opacity="0.4">
<path opacity="0.4" d="M122.673 145.983C115.388 145.983 113.67 145.137 113.029 144.803C111.387 144.008 111.259 143.572 111.208 143.419C111.156 143.29 111.182 143.136 111.233 143.034C111.464 142.623 112.105 142.598 114.055 142.598C114.593 142.598 115.26 142.572 116.004 142.572C117.158 142.546 118.338 142.521 119.492 142.521C120.441 142.521 121.39 142.495 122.339 142.469H122.391C123.878 142.444 125.135 142.418 125.725 143.034C125.956 143.265 126.135 143.649 125.93 144.008C125.546 144.675 124.032 144.701 122.442 144.65C121.006 144.598 118.697 144.265 118.415 143.88C118.364 143.803 118.338 143.726 118.364 143.624C118.415 143.341 118.466 143.111 123.724 143.29L123.699 143.803C121.365 143.726 120.134 143.726 119.492 143.777C120.185 143.931 121.313 144.111 122.493 144.162C124.776 144.239 125.392 144.008 125.52 143.777C125.597 143.649 125.392 143.419 125.392 143.419C124.956 142.957 123.673 142.982 122.416 143.008H122.365C121.416 143.034 120.467 143.034 119.518 143.059C118.364 143.085 117.184 143.085 116.03 143.111C115.26 143.136 114.619 143.136 114.055 143.136C112.798 143.162 111.798 143.162 111.695 143.316C111.695 143.393 112.003 143.778 113.26 144.393C113.978 144.752 116.184 145.83 127.085 145.419C128.162 145.368 130.419 145.291 133.009 144.47C134.677 143.932 135.549 143.547 135.549 143.316C135.497 143.213 134.984 142.675 128.752 142.136C124.468 141.777 120.005 141.649 115.517 141.725V141.212C120.031 141.11 124.494 141.264 128.803 141.623C135.908 142.213 136.01 142.854 136.062 143.239C136.164 143.931 134.856 144.419 133.163 144.958C130.522 145.804 128.136 145.881 127.11 145.932C125.443 145.958 123.955 145.983 122.673 145.983Z" fill="#3913B8"/>
</g>
<path d="M193.955 99.6458H160.586V101.928H193.955V99.6458Z" fill="#FDD17B"/>
<path d="M185.849 97.3627H168.716V99.6455H185.849V97.3627Z" fill="#FDD17B"/>
<path d="M172.589 99.5172H167.716V99.7737H172.589V99.5172Z" fill="#3913B8"/>
<path d="M171.564 99.6458H171.308V101.928H171.564V99.6458Z" fill="#3913B8"/>
<path d="M177.412 97.3627H177.155V99.6455H177.412V97.3627Z" fill="#3913B8"/>
<path d="M182.823 99.6458H182.566V101.928H182.823V99.6458Z" fill="#3913B8"/>
<path d="M182.875 99.5172H180.592V99.7737H182.875V99.5172Z" fill="#3913B8"/>
<g opacity="0.8">
<path opacity="0.8" d="M63.0924 34.7016H29.7227V36.9845H63.0924V34.7016Z" fill="#A8BBDE"/>
<path opacity="0.8" d="M54.9881 32.4189H37.8545V34.7017H54.9881V32.4189Z" fill="#A8BBDE"/>
</g>
<g opacity="0.46">
<g opacity="0.46">
<path opacity="0.5" d="M211.217 53.6308H149.915C149.915 46.9878 152.608 41.909 156.943 38.4978C161.278 35.0608 167.28 33.3166 173.923 33.3166H177.591L177.103 15.2596L179.668 15.2083L180.155 33.291H187.209C200.47 33.291 211.217 40.3703 211.217 53.6308Z" fill="#A8BBDE"/>
</g>
</g>
<path d="M116.417 61.6847C118.415 61.6847 120.034 60.0655 120.034 58.0682C120.034 56.0707 118.415 54.4518 116.417 54.4518C114.42 54.4518 112.801 56.0707 112.801 58.0682C112.801 60.0655 114.42 61.6847 116.417 61.6847Z" fill="#A8BBDE"/>
<path d="M93.6926 66.917C95.2508 66.917 96.5141 65.6537 96.5141 64.0955C96.5141 62.5372 95.2508 61.2742 93.6926 61.2742C92.1343 61.2742 90.8711 62.5372 90.8711 64.0955C90.8711 65.6537 92.1343 66.917 93.6926 66.917Z" fill="#FDD17B"/>
<path d="M93.6919 66.327C92.0762 66.327 90.7422 64.9932 90.7422 63.3775C90.7422 61.7615 92.0762 60.4277 93.6919 60.4277C95.3079 60.4277 96.6417 61.7615 96.6417 63.3775C96.6417 64.9932 95.3334 66.327 93.6919 66.327ZM93.6919 60.7098C92.2044 60.7098 90.9987 61.9155 90.9987 63.403C90.9987 64.8907 92.2044 66.0962 93.6919 66.0962C95.1797 66.0962 96.3852 64.8907 96.3852 63.403C96.3852 61.9155 95.1797 60.7098 93.6919 60.7098Z" fill="#3913B8"/>
<path d="M92.5645 62.5825C92.6927 63.275 92.8722 63.9675 92.975 64.66C93.0005 64.7628 93.1287 64.8395 93.2057 64.7628C93.5135 64.5575 93.7957 64.1215 94.0522 63.9418C94.437 63.634 94.796 63.3008 95.1807 62.9673C95.2835 62.8645 95.232 62.7108 95.0782 62.7108C94.6422 62.685 94.2062 62.5825 93.7957 62.5313C93.565 62.4798 93.0775 62.4798 92.7697 62.403C92.6415 62.3773 92.539 62.4798 92.5645 62.5825Z" fill="#3913B8"/>
<path d="M101.234 47.7315L101.003 47.5005C100.233 46.7567 98.8738 45.6025 98.4635 45.6025C98.4635 45.6025 98.4635 45.6025 98.4378 45.6025L90.1788 46.2695C89.4093 46.3207 88.6398 46.0642 88.0755 45.5512C87.5113 45.0125 87.1778 44.2687 87.2035 43.4992L87.229 39.7287C87.229 38.9592 87.5625 38.2155 88.1525 37.7025C88.7168 37.1895 89.512 36.933 90.2813 37.01L98.5148 37.8307C99.951 37.959 101.029 39.1645 101.003 40.601L100.977 42.9092C100.977 43.6532 101.208 47.398 101.208 47.4492L101.234 47.7315ZM98.4635 45.3202C99.0278 45.3202 100.362 46.5002 100.952 47.0645C100.9 46.1155 100.721 43.4735 100.746 42.8325L100.772 40.524C100.772 39.2157 99.7973 38.1385 98.5148 38.0102L90.2813 37.1895C89.5888 37.1125 88.8708 37.3435 88.3578 37.8307C87.8448 38.2925 87.537 38.985 87.537 39.6775L87.5113 43.448C87.5113 44.1405 87.7935 44.833 88.3065 45.2947C88.8193 45.782 89.512 46.013 90.23 45.9615L98.489 45.2947C98.4378 45.3202 98.4378 45.3202 98.4635 45.3202Z" fill="#3913B8"/>
<path d="M89.3839 43.063H92.2567C92.4619 43.063 92.6157 42.8323 92.5132 42.6528C92.3079 42.2168 91.8207 41.5755 90.8972 41.5755C89.7174 41.5755 89.1787 42.191 89.1019 42.7553C89.0762 42.9348 89.2044 43.063 89.3839 43.063Z" fill="#3913B8"/>
<path d="M90.8204 41.6012C91.2029 41.6012 91.5129 41.2912 91.5129 40.9087C91.5129 40.5262 91.2029 40.2162 90.8204 40.2162C90.4379 40.2162 90.1279 40.5262 90.1279 40.9087C90.1279 41.2912 90.4379 41.6012 90.8204 41.6012Z" fill="#3913B8"/>
<path d="M98.1293 40.5752H94.3333C94.2563 40.5752 94.2051 40.524 94.2051 40.447C94.2051 40.3702 94.2563 40.3187 94.3333 40.3187H98.1293C98.2063 40.3187 98.2576 40.3702 98.2576 40.447C98.2576 40.524 98.2063 40.5752 98.1293 40.5752Z" fill="#3913B8"/>
<path d="M98.1293 41.678H94.3333C94.2563 41.678 94.2051 41.6268 94.2051 41.55C94.2051 41.473 94.2563 41.4218 94.3333 41.4218H98.1293C98.2063 41.4218 98.2576 41.473 98.2576 41.55C98.2576 41.6268 98.2063 41.678 98.1293 41.678Z" fill="#3913B8"/>
<path d="M98.1293 42.7812H94.3333C94.2563 42.7812 94.2051 42.7297 94.2051 42.653C94.2051 42.576 94.2563 42.5247 94.3333 42.5247H98.1293C98.2063 42.5247 98.2576 42.576 98.2576 42.653C98.2576 42.7297 98.2063 42.7812 98.1293 42.7812Z" fill="#3913B8"/>
<path d="M135.27 33.0089C135.167 33.0089 135.064 32.9833 134.987 32.9063C134.834 32.7781 134.808 32.5985 134.885 32.419C135.808 30.3157 136.321 28.8794 136.321 28.5203L136.296 26.2119C136.296 24.7755 137.347 23.57 138.784 23.4418C138.86 23.4418 144.939 23.1083 147.863 23.3648C149.018 23.4674 149.556 24.7499 149.402 26.8531C149.197 29.1872 148.171 31.906 147.171 31.9316C147.145 31.9316 147.145 31.9316 147.12 31.9316L138.86 31.2648C138.758 31.2648 138.219 31.3674 135.5 32.9833C135.423 33.0089 135.347 33.0089 135.27 33.0089ZM144.965 23.5187C142.092 23.5187 138.86 23.6983 138.835 23.6983C137.552 23.8265 136.578 24.9038 136.578 26.2119L136.603 28.5203C136.603 29.0589 135.808 31.0083 135.141 32.5216C135.116 32.5985 135.141 32.6755 135.193 32.7268C135.244 32.7781 135.321 32.8037 135.398 32.7524C137.398 31.5726 138.578 30.9826 138.912 31.0083L147.171 31.6752H147.196C147.966 31.6752 148.992 29.1872 149.171 26.8531C149.248 25.9297 149.274 23.7495 147.889 23.6213C147.043 23.5444 146.017 23.5187 144.965 23.5187Z" fill="#3913B8"/>
<path d="M145.349 29.5721C146.454 29.5721 147.35 28.6764 147.35 27.5715C147.35 26.4665 146.454 25.5708 145.349 25.5708C144.244 25.5708 143.349 26.4665 143.349 27.5715C143.349 28.6764 144.244 29.5721 145.349 29.5721Z" fill="#FDD17B"/>
<path d="M130.087 73.8168C130.583 73.8168 130.985 73.4148 130.985 72.919C130.985 72.4233 130.583 72.0213 130.087 72.0213C129.591 72.0213 129.189 72.4233 129.189 72.919C129.189 73.4148 129.591 73.8168 130.087 73.8168Z" fill="#3913B8"/>
<path d="M130.089 75.5098C128.652 75.5098 127.498 74.3555 127.498 72.9193C127.498 71.4828 128.652 70.3285 130.089 70.3285C131.525 70.3285 132.679 71.4828 132.679 72.9193C132.679 74.3555 131.525 75.5098 130.089 75.5098ZM130.089 70.6107C128.806 70.6107 127.755 71.6625 127.755 72.9448C127.755 74.2273 128.806 75.279 130.089 75.279C131.371 75.279 132.423 74.2273 132.423 72.9448C132.423 71.6625 131.371 70.6107 130.089 70.6107Z" fill="#3913B8"/>
<path d="M142.58 26.9301H138.784C138.707 26.9301 138.655 26.8788 138.655 26.8018C138.655 26.7249 138.707 26.6736 138.784 26.6736H142.58C142.657 26.6736 142.708 26.7249 142.708 26.8018C142.708 26.8788 142.657 26.9301 142.58 26.9301Z" fill="#3913B8"/>
<path d="M142.58 28.0329H138.784C138.707 28.0329 138.655 27.9815 138.655 27.9046C138.655 27.8277 138.707 27.7764 138.784 27.7764H142.58C142.657 27.7764 142.708 27.8277 142.708 27.9046C142.708 27.9815 142.657 28.0329 142.58 28.0329Z" fill="#3913B8"/>
<path d="M122.881 38.8312H109.338V23.647H122.881V38.8312ZM109.594 38.5747H122.624V23.9035H109.594V38.5747Z" fill="#3913B8"/>
<path d="M124.599 23.0312H107.594V25.314H124.599V23.0312Z" fill="#3913B8"/>
<path d="M108.671 24.493C108.855 24.493 109.005 24.3438 109.005 24.1596C109.005 23.9754 108.855 23.8262 108.671 23.8262C108.487 23.8262 108.338 23.9754 108.338 24.1596C108.338 24.3438 108.487 24.493 108.671 24.493Z" fill="#AFE3E2"/>
<path d="M110.236 24.493C110.42 24.493 110.569 24.3438 110.569 24.1596C110.569 23.9754 110.42 23.8262 110.236 23.8262C110.052 23.8262 109.902 23.9754 109.902 24.1596C109.902 24.3438 110.052 24.493 110.236 24.493Z" fill="#F6A7AB"/>
<g opacity="0.9">
<path opacity="0.9" d="M124.804 31.444H112.595C112.288 31.444 112.031 31.1876 112.031 30.8798V27.7762C112.031 27.4684 112.288 27.2119 112.595 27.2119H124.804C125.112 27.2119 125.369 27.4684 125.369 27.7762V30.8798C125.369 31.1876 125.112 31.444 124.804 31.444Z" fill="#A8BBDE"/>
</g>
<g opacity="0.9">
<path opacity="0.9" d="M124.804 36.8305H112.595C112.288 36.8305 112.031 36.574 112.031 36.2663V33.1627C112.031 32.8549 112.288 32.5984 112.595 32.5984H124.804C125.112 32.5984 125.369 32.8549 125.369 33.1627V36.2663C125.369 36.574 125.112 36.8305 124.804 36.8305Z" fill="#FDD17B"/>
</g>
<path d="M103.516 55.426C102.541 55.426 101.772 55.067 101.438 54.8618C100.618 54.4003 100.002 53.6563 99.6429 52.9638C99.3094 52.9383 98.9759 52.8868 98.7196 52.81C96.8214 52.2713 95.9236 50.1425 95.6416 49.2703L95.8981 49.1933C96.1801 50.0398 97.0011 52.0918 98.7964 52.579C98.9761 52.6303 99.2324 52.6818 99.5146 52.7073C99.3864 52.4508 99.3094 52.1943 99.2581 51.9635C99.1556 51.5018 99.2069 51.1428 99.3864 50.9118C99.6429 50.5785 100.182 50.4503 100.541 50.6298C100.771 50.758 100.951 51.0145 101.054 51.348C101.156 51.784 101.079 52.22 100.848 52.502C100.618 52.7843 100.284 52.9125 99.8994 52.9383C100.258 53.5795 100.823 54.2205 101.541 54.6053C101.951 54.8363 103.08 55.3748 104.414 55.0158C105.799 54.631 106.902 53.4768 107.261 51.9378L107.517 51.989C107.132 53.605 105.978 54.8618 104.491 55.2465C104.157 55.3748 103.824 55.426 103.516 55.426ZM100.156 50.8093C99.9506 50.8093 99.7199 50.8863 99.5916 51.0658C99.4634 51.2453 99.4376 51.553 99.5146 51.9123C99.5659 52.1688 99.6686 52.4253 99.7969 52.7073C100.13 52.7073 100.464 52.6303 100.669 52.3738C100.848 52.143 100.9 51.784 100.823 51.4248C100.771 51.1683 100.618 50.9633 100.464 50.8605C100.361 50.835 100.258 50.8093 100.156 50.8093Z" fill="#3913B8"/>
<path d="M127.138 45.1152L126.984 44.9102C128.575 43.756 131.165 41.7297 132.242 39.9855C131.781 39.9085 131.345 39.7032 131.114 39.3185C130.883 38.8825 130.909 38.1645 131.37 37.7797C131.806 37.395 132.525 37.3692 132.858 37.7027C133.243 38.0875 133.012 38.8312 132.884 39.216C132.832 39.3955 132.755 39.6007 132.653 39.7802C133.063 39.806 133.448 39.7802 133.704 39.7802C136.013 39.652 138.834 38.3182 140.091 36.7537C140.604 36.138 140.809 35.4969 140.732 34.9582C140.655 34.4196 140.245 33.9066 139.552 33.4449L139.706 33.2397C140.476 33.7527 140.912 34.317 141.014 34.9326C141.117 35.5482 140.861 36.2407 140.322 36.9332C138.988 38.5747 136.167 39.9342 133.73 40.0625C133.448 40.088 132.986 40.1137 132.525 40.0625C131.422 41.8322 128.754 43.9355 127.138 45.1152ZM132.191 37.7027C131.96 37.7027 131.704 37.7797 131.524 37.9335C131.165 38.2412 131.139 38.8057 131.345 39.1647C131.524 39.4982 131.935 39.652 132.371 39.729C132.473 39.5237 132.576 39.3185 132.627 39.1135C132.73 38.78 132.935 38.1387 132.653 37.8565C132.55 37.754 132.371 37.7027 132.191 37.7027Z" fill="#3913B8"/>
<path d="M140.477 50.8862C139.964 50.8862 139.477 50.7837 139.041 50.5785C138.579 50.3732 138.117 50.0143 137.732 49.6295C136.476 50.2708 134.501 50.6297 133.116 50.8092L133.09 50.5527C135.091 50.2707 136.604 49.886 137.553 49.4243C137.014 48.783 136.707 48.0647 136.937 47.552C137.143 47.0902 137.809 46.808 138.271 46.962C138.784 47.1673 138.989 47.911 138.938 48.347C138.887 48.783 138.528 49.1677 137.963 49.4755C138.297 49.8347 138.707 50.1425 139.143 50.322C140.605 50.9887 142.606 50.4245 144.35 48.8857L144.53 49.0652C143.221 50.2707 141.759 50.8862 140.477 50.8862ZM137.963 47.1927C137.656 47.1927 137.271 47.398 137.168 47.68C136.989 48.0647 137.271 48.7317 137.784 49.3217C138.322 49.014 138.63 48.6805 138.656 48.347C138.707 47.988 138.528 47.3722 138.143 47.244C138.117 47.2185 138.04 47.1927 137.963 47.1927Z" fill="#3913B8"/>
<path d="M93.4861 30.5979L93.3066 30.4184C94.5121 29.2129 95.8714 28.2639 97.3849 27.5457C98.2311 27.1609 99.1289 26.8275 100.027 26.6223L100.078 26.8788C99.1801 27.084 98.3081 27.3918 97.4874 27.8022C95.9996 28.4947 94.6659 29.4181 93.4861 30.5979Z" fill="#3913B8"/>
<path d="M93.076 32.4959L92.8965 32.3164C94.102 31.1108 95.4615 30.1618 96.9747 29.4436C97.8212 29.0589 98.7187 28.7255 99.6165 28.5203L99.668 28.7768C98.7702 28.982 97.898 29.2898 97.0772 29.7001C95.5897 30.367 94.256 31.316 93.076 32.4959Z" fill="#3913B8"/>
<g opacity="0.4">
<path opacity="0.4" d="M138.989 151.149C138.784 151.149 138.63 151.047 138.63 150.893L137.963 100.672H140.04L139.374 150.893C139.374 151.047 139.194 151.149 138.989 151.149Z" fill="#3913B8"/>
</g>
<g opacity="0.4">
<path opacity="0.4" d="M124.087 151.149C123.882 151.149 123.728 151.047 123.728 150.893L123.061 100.672H125.138L124.471 150.893C124.446 151.047 124.292 151.149 124.087 151.149Z" fill="#3913B8"/>
</g>
<path d="M132.346 81.1523L112.519 91.1043L112.416 90.899C112.134 90.3348 112.365 89.6423 112.929 89.36L130.704 80.4343C131.268 80.152 131.961 80.3828 132.243 80.947L132.346 81.1523Z" fill="#3913B8"/>
<path d="M112.544 91.1042L114.211 92.797L134.038 82.8195L132.345 81.1523L129.652 81.7422L113.185 90.1553L112.544 91.1042Z" fill="#3913B8"/>
<path d="M132.243 81.383L141.349 56.4265C140.631 56.17 139.861 56.529 139.605 57.2472L131.423 79.639C131.166 80.357 131.551 81.1265 132.243 81.383Z" fill="#3913B8"/>
<path d="M141.349 56.4265L144.324 56.8112L133.628 82.7682L132.243 81.3832L132.525 78.6387L140.502 57.196L141.349 56.4265Z" fill="#3913B8"/>
<path fill-rule="evenodd" clip-rule="evenodd" d="M130.704 80.434C130.915 80.3285 131.143 80.2947 131.362 80.323C131.324 80.102 131.341 79.8677 131.422 79.639L139.604 57.2472C139.861 56.529 140.63 56.17 141.349 56.4265H141.348H141.349L144.324 56.8112L133.732 82.5172L134.038 82.8192L114.212 92.7967L112.544 91.104L112.557 91.0847L112.519 91.104L112.416 90.8987C112.134 90.3345 112.365 89.642 112.929 89.3597L130.704 80.434Z" fill="white" fill-opacity="0.57"/>
<path d="M137.193 97.6963H114.75C113.493 97.6963 112.441 96.6703 112.441 95.3878C112.441 94.1053 113.467 93.0793 114.75 93.0793C114.904 93.0793 115.006 93.182 115.006 93.3358C115.006 93.4898 114.904 93.5923 114.75 93.5923C113.775 93.5923 112.954 94.3875 112.954 95.3878C112.954 96.3625 113.75 97.1833 114.75 97.1833H137.193C137.347 97.1833 137.449 97.2858 137.449 97.4398C137.449 97.5935 137.321 97.6963 137.193 97.6963Z" fill="#FDD17B"/>
<path d="M104.285 97.5938H103.438V95.3623L104.285 95.157V97.5938Z" fill="#FDD17B"/>
<path d="M138.219 151.277C137.937 151.277 137.732 151.123 137.732 150.892L137.039 100.543H139.399L138.706 150.892C138.732 151.123 138.501 151.277 138.219 151.277ZM137.321 100.825L137.988 150.892C137.988 150.944 138.091 151.021 138.219 151.021C138.347 151.021 138.45 150.944 138.45 150.892L139.117 100.825H137.321Z" fill="#3913B8"/>
<path d="M123.317 151.277C123.034 151.277 122.829 151.123 122.829 150.892L122.137 100.543H124.496L123.804 150.892C123.804 151.123 123.573 151.277 123.317 151.277ZM122.393 100.825L123.06 150.892C123.06 150.944 123.163 151.021 123.291 151.021C123.419 151.021 123.522 150.944 123.522 150.892L124.189 100.825H122.393Z" fill="#3913B8"/>
<path d="M141.503 101.107H88.2293C87.5881 101.107 87.1006 100.594 87.1006 99.979V99.5427C87.1006 98.9017 87.6136 98.4142 88.2293 98.4142H141.477C142.118 98.4142 142.606 98.9272 142.606 99.5427V99.979C142.631 100.62 142.118 101.107 141.503 101.107Z" fill="#3913B8"/>
<path d="M134.037 82.8193L114.21 92.7712L114.108 92.566C113.826 92.0018 114.056 91.3092 114.621 91.027L132.396 82.1012C132.96 81.819 133.652 82.0497 133.934 82.614L134.037 82.8193Z" fill="#3913B8"/>
<path d="M134.039 82.8197L144.529 56.914C143.837 56.632 143.041 56.9653 142.759 57.6578L133.295 81.05C133.013 81.7683 133.346 82.5375 134.039 82.8197Z" fill="#3913B8"/>
<path d="M106.517 97.7217H105.389V95.054L106.517 94.7462V97.7217ZM105.671 97.4652H106.286V95.0798L105.671 95.2337V97.4652Z" fill="#3913B8"/>
<path d="M125.856 97.568H124.907L122.881 89.2578L124.009 88.6678L125.856 97.568ZM125.112 97.3115H125.548L123.83 89.0525L123.189 89.386L125.112 97.3115Z" fill="#FDD17B"/>
<path d="M135.244 82.794L114.391 92.9768C114.135 93.105 113.827 93.0538 113.647 92.8485L110.826 89.822C110.621 89.6425 110.339 89.899 110.492 90.1043L113.134 93.9003C113.314 94.1568 113.673 94.2593 113.955 94.1055L135.577 83.4098C135.706 83.3585 135.783 83.2303 135.783 83.102C135.757 82.8455 135.475 82.6915 135.244 82.794Z" fill="#FDD17B"/>
<path d="M119.546 86.7442C119.469 86.616 119.443 86.4878 119.725 86.3083C119.982 86.1545 120.11 86.2312 120.187 86.3595" fill="#3913B8"/>
<path d="M114.954 88.6935L117.981 87.0778L119.263 88.1805L116.108 89.8478L114.954 88.6935Z" fill="#3913B8"/>
<path d="M119.879 87.0775C119.802 86.9493 119.776 86.821 120.058 86.6415C120.315 86.4878 120.443 86.5645 120.52 86.6928" fill="#3913B8"/>
<path d="M120.213 87.3855C120.136 87.2573 120.11 87.129 120.392 86.9495C120.649 86.7955 120.777 86.8725 120.854 87.0008" fill="#3913B8"/>
<path d="M120.546 87.719C120.469 87.5908 120.443 87.4625 120.725 87.283C120.982 87.129 121.11 87.206 121.187 87.3343" fill="#3913B8"/>
<path d="M120.931 86.0513C120.854 85.923 120.829 85.7948 121.111 85.6153C121.367 85.4613 121.496 85.5383 121.572 85.6665" fill="#3913B8"/>
<path d="M121.264 86.3848C121.187 86.2565 121.162 86.1283 121.444 85.9488C121.7 85.7948 121.829 85.8718 121.906 86" fill="#3913B8"/>
<path d="M121.597 86.6925C121.52 86.5643 121.495 86.436 121.777 86.2565C122.033 86.1028 122.162 86.1795 122.239 86.3078" fill="#3913B8"/>
<path d="M121.93 87.0258C121.853 86.8975 121.828 86.7693 122.11 86.5898C122.366 86.436 122.495 86.5128 122.572 86.641" fill="#3913B8"/>
<path d="M122.341 85.3588C122.264 85.2305 122.239 85.1023 122.521 84.9228C122.777 84.769 122.906 84.8458 122.983 84.974" fill="#3913B8"/>
<path d="M122.675 85.6923C122.598 85.564 122.573 85.4357 122.855 85.2562C123.111 85.1025 123.24 85.1793 123.317 85.3075" fill="#3913B8"/>
<path d="M122.983 86.0003C122.906 85.872 122.88 85.7437 123.163 85.5642C123.419 85.4102 123.547 85.4873 123.624 85.6155" fill="#3913B8"/>
<path d="M123.316 86.3335C123.239 86.2053 123.214 86.077 123.496 85.8975C123.752 85.7435 123.88 85.8205 123.957 85.9488" fill="#3913B8"/>
<path d="M123.726 84.6668C123.649 84.5385 123.624 84.4103 123.906 84.2308C124.162 84.0768 124.291 84.1538 124.368 84.282" fill="#3913B8"/>
<path d="M124.06 85C123.983 84.8718 123.958 84.7435 124.24 84.564C124.496 84.41 124.625 84.487 124.702 84.6153" fill="#3913B8"/>
<path d="M124.393 85.308C124.316 85.1798 124.291 85.0515 124.573 84.872C124.829 84.718 124.958 84.795 125.035 84.9233" fill="#3913B8"/>
<path d="M124.726 85.6413C124.649 85.513 124.624 85.3848 124.906 85.2053C125.162 85.0513 125.29 85.1283 125.367 85.2565" fill="#3913B8"/>
<path d="M125.111 83.974C125.034 83.8458 125.008 83.7175 125.291 83.538C125.547 83.384 125.675 83.461 125.752 83.5893" fill="#3913B8"/>
<path d="M125.445 84.3073C125.368 84.179 125.342 84.0508 125.625 83.8713C125.881 83.7175 126.009 83.7943 126.086 83.9225" fill="#3913B8"/>
<path d="M125.778 84.6153C125.701 84.487 125.675 84.3588 125.957 84.1793C126.214 84.0253 126.342 84.1023 126.419 84.2305" fill="#3913B8"/>
<path d="M126.11 84.9488C126.033 84.8205 126.007 84.6922 126.29 84.5127C126.546 84.3587 126.674 84.4358 126.751 84.564" fill="#3913B8"/>
<path d="M126.522 83.2815C126.445 83.1533 126.42 83.025 126.702 82.8455C126.958 82.6915 127.086 82.7685 127.163 82.8968" fill="#3913B8"/>
<path d="M126.83 83.615C126.753 83.4868 126.727 83.3585 127.009 83.179C127.266 83.025 127.394 83.102 127.471 83.2303" fill="#3913B8"/>
<path d="M127.164 83.9228C127.087 83.7945 127.061 83.6662 127.343 83.4867C127.6 83.3327 127.728 83.4098 127.805 83.538" fill="#3913B8"/>
<path d="M127.498 84.2562C127.421 84.128 127.395 83.9997 127.677 83.8202C127.934 83.6662 128.062 83.7432 128.139 83.8715" fill="#3913B8"/>
<path d="M107.85 95.0285L90.5371 97.7217L90.4603 97.1575C90.3576 96.5417 90.7936 95.952 91.4093 95.8492L106.465 93.5152C107.081 93.4127 107.671 93.8487 107.774 94.4642L107.85 95.0285Z" fill="#3913B8"/>
<path d="M82.0468 126.756L54.2943 122.729C53.5763 122.729 52.9863 122.191 52.9863 121.55V115.778C52.9863 114.086 54.4996 112.701 56.3721 112.701H81.1748C84.8426 112.701 87.7923 115.394 87.7923 118.702V121.55C87.7666 122.191 82.7651 126.756 82.0468 126.756Z" fill="#A8BBDE"/>
<path d="M57.7065 70.5848L62.8107 117.908L50.8325 118.831L49.8066 81.3575L45.9336 73.2268L53.218 69.4563L57.7065 70.5848Z" fill="#A8BBDE"/>
<path d="M39.1357 61.4537C39.1357 61.4537 47.1383 56.7857 50.7036 57.9397C54.2688 59.094 55.8078 60.2227 56.6286 63.7622L57.7058 70.585L48.6259 73.6885L40.0335 63.275L39.1357 61.4537Z" fill="#FDD17B"/>
<path d="M48.9595 118.779C49.9342 110.033 49.4981 101.235 47.7283 92.643C45.856 83.5887 42.4959 74.7912 37.6995 66.6347C36.494 64.5827 37.6995 61.941 40.0592 61.5305C40.0849 61.5305 40.1105 61.5305 40.1362 61.505C41.5725 61.2485 42.9832 61.941 43.7014 63.1977C48.6261 72.0467 51.8834 81.7165 53.3454 91.6682C54.6024 100.235 54.5509 109.058 53.1404 117.779C52.7557 120.19 48.703 121.062 48.9595 118.779Z" fill="#A8BBDE"/>
<path d="M48.6268 73.6882L42.7275 76.5867C41.2911 73.1752 39.6239 69.841 37.7259 66.609C36.5204 64.5572 37.7259 61.9152 40.0856 61.505C40.1112 61.505 40.1369 61.505 40.1625 61.505C41.5732 61.2485 43.0096 61.941 43.7278 63.1977C45.6002 66.5835 47.2417 70.0717 48.6268 73.6882Z" fill="#FDD17B"/>
<path d="M82.1494 126.757H49.7287C49.0618 126.757 48.5488 126.218 48.5488 125.577V119.806C48.5488 118.113 49.9339 116.728 51.6266 116.728H77.3271C80.6359 116.728 83.3291 119.421 83.3291 122.73V125.577C83.3549 126.218 82.8161 126.757 82.1494 126.757Z" fill="#A8BBDE"/>
<path opacity="0.4" d="M53.3037 116.728H77.3277C80.6364 116.728 83.3297 119.421 83.3297 122.73V125.577C83.3552 126.218 82.8167 126.757 82.1497 126.757H49.7292C49.0623 126.757 48.5493 126.218 48.5493 125.577V119.805C48.5493 119.204 48.7242 118.641 49.0256 118.166C49.9131 109.622 49.4568 101.035 47.7283 92.643C45.856 83.5887 42.4959 74.7912 37.6995 66.6347C36.494 64.5827 37.6995 61.941 40.0592 61.5305C40.0849 61.5305 40.1105 61.5305 40.1362 61.505C41.5725 61.2485 42.9832 61.941 43.7014 63.1977C48.6261 72.0467 51.8834 81.7165 53.3454 91.6682C54.5519 99.891 54.5529 108.35 53.3037 116.728Z" fill="white"/>
<path d="M52.5987 151.97C52.5475 151.97 52.4962 151.919 52.4705 151.867C52.445 151.79 52.4962 151.739 52.5732 151.713C54.6507 151.329 56.318 150.431 57.421 149.123C57.9082 148.559 58.7032 147.43 58.6265 146.866C58.0877 147.327 57.4977 147.712 57.2157 147.507C57.113 147.456 57.0617 147.327 57.0362 147.174C57.0105 146.943 57.0617 146.686 57.19 146.532C57.344 146.327 57.6517 146.224 57.9852 146.224C58.2672 146.224 58.5237 146.327 58.6777 146.455C58.883 146.276 59.088 146.071 59.2932 145.84C60.1652 144.916 62.4737 142.48 61.6787 139.863C61.3965 138.914 60.7552 138.068 60.0115 137.478C59.832 137.632 59.6525 137.76 59.4215 137.863C58.5237 138.299 57.344 138.248 56.754 137.991C56.5487 137.888 56.4462 137.786 56.4205 137.658C56.395 137.555 56.4205 137.427 56.4975 137.299C56.7027 136.965 57.267 136.632 57.7542 136.529C58.4467 136.375 59.2677 136.657 59.9857 137.17C61.294 135.888 61.3195 133.323 61.3195 132.989C61.294 129.912 59.165 127.731 58.2417 126.936C58.1905 126.885 58.1902 126.808 58.216 126.757C58.2417 126.705 58.3442 126.705 58.3955 126.731C59.3445 127.552 61.5505 129.783 61.5505 132.989C61.5505 133.528 61.499 136.016 60.1652 137.324C60.9347 137.94 61.6017 138.838 61.8837 139.812C62.7047 142.582 60.3192 145.07 59.4215 146.019C59.242 146.224 59.0112 146.455 58.7802 146.661C59.088 147.379 57.934 148.815 57.5747 149.251C56.472 150.636 54.7277 151.56 52.5987 151.97ZM57.934 146.507C57.6775 146.507 57.4722 146.584 57.3695 146.712C57.2927 146.814 57.2412 146.994 57.267 147.148C57.267 147.225 57.3182 147.276 57.344 147.302C57.4977 147.404 57.934 147.122 58.4982 146.661C58.37 146.558 58.1905 146.507 57.9852 146.507C57.934 146.507 57.934 146.507 57.934 146.507ZM58.1647 136.786C58.0365 136.786 57.934 136.786 57.8057 136.811C57.3182 136.914 56.8565 137.222 56.7027 137.478C56.6515 137.529 56.6515 137.606 56.6515 137.632C56.6515 137.683 56.7282 137.735 56.8565 137.812C57.3182 138.042 58.4467 138.119 59.319 137.709C59.4985 137.632 59.6525 137.529 59.8062 137.401C59.2677 136.991 58.6777 136.786 58.1647 136.786Z" fill="#3913B8"/>
<path d="M78.7279 151.97C78.7022 151.97 78.7022 151.97 78.7279 151.97C76.5734 151.56 74.8549 150.636 73.7262 149.302C73.3414 148.866 72.2129 147.43 72.5207 146.712C72.2899 146.481 72.0592 146.25 71.8794 146.071C70.9817 145.122 68.5964 142.608 69.4172 139.864C69.6994 138.889 70.3662 137.991 71.1357 137.376C69.8277 136.042 69.7507 133.579 69.7507 133.041C69.7762 129.86 71.9564 127.603 72.9054 126.782C72.9567 126.731 73.0337 126.731 73.0849 126.808C73.1364 126.885 73.1364 126.936 73.0594 126.988C72.1359 127.783 70.0072 129.963 69.9814 133.041C69.9814 133.374 70.0072 135.939 71.3152 137.222C72.0334 136.709 72.8542 136.452 73.5467 136.58C74.0597 136.683 74.5984 137.016 74.8034 137.35C74.8804 137.478 74.9062 137.606 74.8804 137.709C74.8549 137.837 74.7267 137.966 74.5469 138.042C73.9572 138.325 72.7517 138.35 71.8794 137.914C71.6744 137.812 71.4692 137.683 71.2897 137.529C70.5457 138.119 69.9044 138.966 69.6224 139.915C68.8529 142.531 71.1357 144.968 72.0077 145.891C72.2129 146.122 72.4182 146.327 72.6234 146.507C72.7772 146.353 73.0337 146.276 73.3159 146.276C73.6494 146.276 73.9572 146.378 74.1109 146.584C74.2392 146.763 74.2904 146.994 74.2649 147.225C74.2392 147.379 74.1622 147.481 74.0854 147.558C73.7777 147.764 73.2132 147.379 72.6747 146.917C72.5719 147.456 73.3929 148.584 73.8802 149.174C74.9832 150.457 76.6502 151.354 78.7279 151.765C78.8049 151.79 78.8304 151.842 78.8304 151.919C78.8304 151.944 78.7792 151.97 78.7279 151.97ZM72.8542 146.661C73.4184 147.148 73.8544 147.404 74.0084 147.302C74.0342 147.276 74.0597 147.225 74.0854 147.148C74.1109 146.994 74.0597 146.814 73.9827 146.712C73.8802 146.584 73.6494 146.481 73.3929 146.507C73.1619 146.507 72.9567 146.558 72.8542 146.661ZM71.5204 137.376C71.6744 137.504 71.8282 137.606 72.0077 137.683C72.8799 138.094 73.9827 138.017 74.4702 137.786C74.5984 137.735 74.6752 137.658 74.6752 137.606C74.6752 137.581 74.6752 137.504 74.6239 137.453C74.4702 137.222 74.0084 136.888 73.5212 136.786C72.8799 136.683 72.1617 136.914 71.5204 137.376Z" fill="#3913B8"/>
<path d="M49.3442 122.294C49.3186 122.294 49.2672 122.294 49.2416 122.268C49.1903 122.217 49.1903 122.14 49.2416 122.088L52.653 118.677C52.7042 118.626 52.7812 118.626 52.8325 118.677C52.8837 118.729 52.8837 118.805 52.8325 118.857L49.4212 122.268C49.4212 122.294 49.3699 122.294 49.3442 122.294Z" fill="#3913B8"/>
<path d="M73.4039 127.501C73.3781 127.501 73.3269 127.5 73.3011 127.475C73.2499 127.423 73.2499 127.347 73.3011 127.295L76.7126 123.884C76.7639 123.833 76.8409 123.833 76.8921 123.884C76.9434 123.935 76.9434 124.012 76.8921 124.064L73.4806 127.449C73.4551 127.475 73.4294 127.501 73.4039 127.501Z" fill="#3913B8"/>
<path d="M71.1458 127.501C71.1203 127.501 71.0691 127.5 71.0433 127.475C70.9921 127.423 70.9921 127.347 71.0433 127.295L74.4546 123.884C74.5058 123.833 74.5828 123.833 74.6341 123.884C74.6856 123.935 74.6856 124.012 74.6341 124.064L71.2228 127.475C71.2228 127.475 71.1971 127.501 71.1458 127.501Z" fill="#3913B8"/>
<path d="M66.6821 127.501C66.6564 127.501 66.6051 127.5 66.5796 127.475C66.5281 127.423 66.5281 127.347 66.5796 127.295L69.9909 123.884C70.0421 123.833 70.1191 123.833 70.1704 123.884C70.2216 123.935 70.2216 124.012 70.1704 124.064L66.7591 127.475C66.7334 127.475 66.7079 127.501 66.6821 127.501Z" fill="#3913B8"/>
<path d="M64.4263 127.501C64.4005 127.501 64.3493 127.5 64.3238 127.475C64.2723 127.423 64.2723 127.347 64.3238 127.295L67.735 123.884C67.7863 123.833 67.8633 123.833 67.9145 123.884C67.9658 123.935 67.9658 124.012 67.9145 124.064L64.5033 127.475C64.5033 127.475 64.4518 127.501 64.4263 127.501Z" fill="#3913B8"/>
<path d="M62.1939 127.501C62.1682 127.501 62.1169 127.5 62.0912 127.475C62.0399 127.423 62.0399 127.347 62.0912 127.295L65.5027 123.884C65.5539 123.833 65.6309 123.833 65.6822 123.884C65.7334 123.935 65.7334 124.012 65.6822 124.064L62.2707 127.475C62.2452 127.475 62.2194 127.501 62.1939 127.501Z" fill="#3913B8"/>
<path d="M59.9622 127.501C59.9367 127.501 59.8855 127.5 59.8597 127.475C59.8085 127.423 59.8085 127.347 59.8597 127.295L63.271 123.884C63.3225 123.833 63.3992 123.833 63.4507 123.884C63.502 123.935 63.502 124.012 63.4507 124.064L60.0392 127.475C60.0137 127.475 59.988 127.501 59.9622 127.501Z" fill="#3913B8"/>
<path d="M57.7054 127.501C57.6799 127.501 57.6284 127.5 57.6029 127.475C57.5516 127.423 57.5516 127.347 57.6029 127.295L61.0141 123.884C61.0654 123.833 61.1424 123.833 61.1936 123.884C61.2449 123.935 61.2449 124.012 61.1936 124.064L57.7824 127.475C57.7824 127.475 57.7311 127.501 57.7054 127.501Z" fill="#3913B8"/>
<path d="M55.4741 127.501C55.4484 127.501 55.3971 127.5 55.3716 127.475C55.3201 127.423 55.3201 127.347 55.3716 127.295L58.7829 123.884C58.8341 123.833 58.9111 123.833 58.9624 123.884C59.0136 123.935 59.0136 124.012 58.9624 124.064L55.5511 127.475C55.5254 127.475 55.4999 127.501 55.4741 127.501Z" fill="#3913B8"/>
<path d="M53.2164 127.501C53.1906 127.501 53.1394 127.5 53.1136 127.475C53.0624 127.423 53.0624 127.347 53.1136 127.295L56.5251 123.884C56.5764 123.833 56.6534 123.833 56.7046 123.884C56.7559 123.935 56.7559 124.012 56.7046 124.064L53.2934 127.475C53.2934 127.475 53.2676 127.501 53.2164 127.501Z" fill="#3913B8"/>
<path d="M50.9859 127.501C50.9602 127.501 50.9089 127.5 50.8832 127.475C50.8319 127.423 50.8319 127.347 50.8832 127.295L54.2947 123.884C54.3459 123.833 54.4229 123.833 54.4742 123.884C54.5254 123.935 54.5254 124.012 54.4742 124.064L51.0629 127.475C51.0629 127.475 51.0114 127.501 50.9859 127.501Z" fill="#3913B8"/>
<path d="M49.7026 123.551C49.6769 123.551 49.6256 123.551 49.6 123.525C49.5487 123.474 49.5487 123.397 49.6 123.345L53.0114 119.934C53.0626 119.883 53.1396 119.883 53.1909 119.934C53.2421 119.985 53.2421 120.062 53.1909 120.114L49.7795 123.525C49.7539 123.551 49.7282 123.551 49.7026 123.551Z" fill="#3913B8"/>
<path d="M49.3442 125.628C49.3186 125.628 49.2672 125.628 49.2416 125.602C49.1903 125.551 49.1903 125.474 49.2416 125.423L52.653 122.011C52.7042 121.96 52.7812 121.96 52.8325 122.011C52.8837 122.063 52.8837 122.14 52.8325 122.191L49.4212 125.602C49.4212 125.602 49.3699 125.628 49.3442 125.628Z" fill="#3913B8"/>
<path d="M49.7026 126.885C49.6769 126.885 49.6256 126.885 49.6 126.859C49.5487 126.808 49.5487 126.731 49.6 126.68L53.0114 123.269C53.0626 123.217 53.1396 123.217 53.1909 123.269C53.2421 123.32 53.2421 123.397 53.1909 123.448L49.7795 126.859C49.7539 126.859 49.7282 126.885 49.7026 126.885Z" fill="#3913B8"/>
<path d="M68.9515 127.456C68.926 127.456 68.8745 127.456 68.849 127.43C68.7977 127.379 68.7977 127.302 68.849 127.251L72.2602 123.839C72.3115 123.788 72.3885 123.788 72.4397 123.839C72.4912 123.89 72.4912 123.968 72.4397 124.019L69.0285 127.43C69.0027 127.43 68.9772 127.456 68.9515 127.456Z" fill="#3913B8"/>
<path d="M41.6761 77.2282C41.6248 77.2282 41.5735 77.2025 41.5735 77.1513C41.5479 77.1 41.5735 77.023 41.6248 76.9717L49.4991 73.1242C49.5504 73.0987 49.6274 73.1242 49.6787 73.1755C49.7043 73.227 49.6787 73.3038 49.6274 73.3553L41.7531 77.2025C41.7018 77.2025 41.7018 77.2282 41.6761 77.2282Z" fill="#3913B8"/>
<path d="M46.651 69.1227C46.5998 69.1227 46.5485 69.0972 46.5228 69.046C45.6251 67.071 44.6248 65.1215 43.5731 63.2235C42.9063 62.018 41.5212 61.3512 40.1361 61.6077C40.1105 61.6077 40.0849 61.6077 40.0592 61.6332C38.9819 61.8127 38.1099 62.5052 37.6482 63.48C37.1865 64.4802 37.2378 65.5832 37.8021 66.5322C37.8277 66.5835 37.8277 66.6605 37.7508 66.7117C37.6995 66.7375 37.6225 66.7375 37.5712 66.6605C36.9813 65.6345 36.9043 64.429 37.4173 63.3775C37.9047 62.3002 38.8537 61.582 40.0336 61.3767C40.0592 61.3767 40.0849 61.3767 40.1105 61.3767C41.5982 61.1202 43.0858 61.8385 43.804 63.121C44.8556 65.019 45.8559 66.9682 46.7536 68.9432C46.7793 69.0202 46.7536 69.0715 46.7023 69.1227C46.7023 69.1227 46.6767 69.1227 46.651 69.1227Z" fill="#3913B8"/>
<path d="M101.207 71.9188C101.207 71.9188 106.618 68.02 108.234 67.1223C109.876 66.2503 114.031 65.9168 117.032 66.8403C117.596 67.0198 115.365 68.3023 114.775 68.379C114.775 68.379 124.111 68.0713 124.034 69.0973C123.983 70.1233 122.29 70.7645 119.853 71.098C117.417 71.4313 111.441 72.3035 108.363 71.9188C106.567 73.5603 102.54 78.177 102.54 78.177L99.4365 73.8168L101.207 71.9188Z" fill="#F8BCBF"/>
<path d="M83.9955 91.6427C83.9955 91.6427 90.9978 88.3082 93.3318 88.9495C94.3065 89.206 95.8713 89.5395 97.2818 90.4885C99.2313 91.7967 99.5133 93.5665 98.667 94.0025C98 94.336 94.717 93.4125 94.717 93.4125C94.717 93.4125 93.3063 94.105 92.152 95.0285C91.28 95.721 86.817 96.08 86.817 96.08C82.2258 91.617 83.9955 91.6427 83.9955 91.6427Z" fill="#F8BCBF"/>
<path d="M90.4856 85.4615C89.7161 85.4615 88.9466 85.3333 88.2026 85.0768L70.3766 79.0492C67.9653 78.254 71.0691 76.8947 71.8641 74.4837C72.6593 72.0727 68.0423 67.3275 70.4533 68.1227L90.0493 75.997L101.335 69.636C103.387 68.1483 108.825 75.561 106.773 77.0485L94.5636 84.0765C93.3838 84.9997 91.9476 85.4615 90.4856 85.4615Z" fill="#3913B8"/>
<path d="M80.2009 47.7055C80.5856 47.4747 83.2531 45.2175 82.9454 44.3967C82.7401 43.8325 81.5091 44.0377 81.3039 43.3965C81.1499 42.9347 81.7144 42.4475 82.0734 41.9087C83.1764 40.37 82.5094 36.702 81.0216 36.266C75.4816 34.6501 71.3776 41.524 71.3776 41.524C71.8906 40.5237 71.8906 39.5235 71.3776 39.0362C70.7109 38.395 69.3514 38.9592 69.1719 39.0362C66.7609 40.0365 66.2991 43.294 65.4784 43.1657C64.9654 43.063 65.1191 41.832 64.3499 41.524C63.6571 41.242 62.4774 41.8062 62.1439 42.6527C61.6309 43.9607 63.3751 45.3457 62.9134 46.064C62.6826 46.423 61.9131 46.6027 59.7841 45.987C58.6814 50.5782 60.7331 54.913 61.3231 56.529C61.8104 57.9395 62.5031 59.8632 64.0164 60.1455C65.1191 60.3507 66.5811 59.658 66.9916 58.5807C67.5816 57.0675 65.7091 55.862 65.8631 53.3227C65.9144 52.2197 66.4786 52.143 66.7864 51.63C70.3004 51.3477 77.7644 49.2445 80.2009 47.7055Z" fill="#3913B8"/>
<path d="M63.9896 69.3022C63.9896 69.3022 66.7341 60.3507 66.8366 57.0932C66.8366 57.0932 63.1176 58.2475 63.4508 55.939C63.7843 53.605 66.8366 54.1692 66.8366 54.1692C66.7083 53.0405 66.9648 51.9377 67.6061 50.8605C67.6061 50.8605 73.0181 50.6295 79.3533 48.116L80.6616 57.5035L79.1226 57.8112C79.1226 57.8112 77.8913 64.1467 77.2246 64.3775C76.5576 64.6085 72.5563 64.6852 72.5563 64.6852L72.2228 74.432C72.1973 74.432 65.1693 73.0982 63.9896 69.3022Z" fill="#F8BCBF"/>
<path d="M64.7345 65.6348C63.1442 67.661 47.2674 78.6133 56.6807 105.314H77.431C77.431 105.314 78.8415 86.2823 78.226 83.0248C77.8412 80.9215 77.8157 72.3548 77.7387 71.8418C77.636 71.1493 72.9935 69.2768 72.378 69.995L72.2497 72.406C67.992 70.7388 64.9652 65.3783 64.7345 65.6348Z" fill="#3913B8"/>
<path d="M69.0179 103.519C68.9154 103.519 68.8126 103.519 68.7101 103.519C67.4534 103.468 65.1449 102.878 63.9906 99.4918C63.7599 98.7738 63.5034 97.8245 63.2469 96.619C62.8621 94.798 62.4004 92.2845 61.9131 89.1553C61.0924 83.9228 60.4511 78.793 60.4254 78.5878C60.1176 76.074 61.8874 73.7657 64.4011 73.4577C66.9146 73.15 69.2231 74.9198 69.5309 77.4335C70.1979 82.7685 71.3264 90.4378 72.0446 94.362C75.1994 92.9255 80.0984 91.4893 84.0484 89.5143C86.3311 88.3858 90.4094 96.619 88.1266 97.7478C73.0449 105.263 70.2491 103.519 69.0179 103.519Z" fill="#3913B8"/>
<path d="M69.0179 103.519C68.9154 103.519 68.8126 103.519 68.7101 103.519C67.4534 103.468 65.1449 102.878 63.9906 99.4918C63.7599 98.7738 63.5034 97.8245 63.2469 96.619C62.8621 94.798 62.4004 92.2845 61.9131 89.1553C61.0924 83.9228 60.4511 78.793 60.4254 78.5878C60.1176 76.074 61.8874 73.7657 64.4011 73.4577C66.9146 73.15 69.2231 74.9198 69.5309 77.4335C70.1979 82.7685 71.3264 90.4378 72.0446 94.362C75.1994 92.9255 80.0984 91.4893 84.0484 89.5143C86.3311 88.3858 90.4094 96.619 88.1266 97.7478C73.0449 105.263 70.2491 103.519 69.0179 103.519Z" fill="black" fill-opacity="0.28"/>
<path d="M72.0442 96.4137C71.9672 96.4137 71.9159 96.3368 71.9159 96.2598C72.1724 94.2593 69.4792 77.5615 68.5302 75.2275C68.0942 74.1503 66.0422 74.0733 64.4007 74.1758C62.5797 74.304 60.8612 74.7145 60.8354 74.7145C60.7584 74.74 60.7072 74.6888 60.6814 74.6118C60.6559 74.535 60.7072 74.4835 60.7842 74.458C61.0662 74.381 67.8377 72.8165 68.7867 75.1247C69.6587 77.2792 72.4802 93.9512 72.1724 96.2855C72.1724 96.388 72.0954 96.4137 72.0442 96.4137Z" fill="#060606"/>
<path d="M70.4539 95.5415C70.4026 95.5415 70.3771 95.5158 70.3514 95.4903C70.3256 95.439 70.3256 95.362 70.4026 95.3108C70.4284 95.285 74.3014 92.9765 82.1501 90.0782C82.2269 90.0525 82.2783 90.0783 82.3038 90.1553C82.3296 90.232 82.3038 90.2835 82.2268 90.309C74.4038 93.2075 70.5821 95.5157 70.5309 95.5415C70.5054 95.5157 70.4796 95.5415 70.4539 95.5415Z" fill="#060606"/>
<path d="M68.6069 104.16C66.0676 104.16 63.8874 100.287 62.1434 92.669C60.8351 86.9492 60.2451 81.1268 60.2451 81.05C60.2451 80.973 60.2966 80.9218 60.3479 80.9218C60.4249 80.9218 60.4761 80.973 60.4761 81.0242C60.5016 81.255 62.7846 104.16 68.6581 103.903C75.8656 103.57 86.8691 97.3628 86.9974 97.2858C87.0486 97.2603 87.1256 97.2602 87.1769 97.3372C87.2281 97.414 87.2026 97.4652 87.1256 97.5167C87.0231 97.568 75.9426 103.827 68.6839 104.16C68.6839 104.16 68.6326 104.16 68.6069 104.16Z" fill="#060606"/>
<path d="M75.9179 85.2308L75.6614 84.6665C75.4819 84.2817 75.1996 83.6663 74.9431 83.6405C74.8149 83.6405 74.6866 83.7945 74.5329 84.0765L74.3789 84.41L74.3019 84.051C74.1736 83.461 74.1994 82.871 74.1994 82.3067C74.1994 82.1527 74.1994 81.999 74.1994 81.845C74.1994 81.768 74.2506 81.7168 74.3276 81.7168C74.4046 81.7168 74.4559 81.768 74.4559 81.845C74.4559 81.999 74.4559 82.1527 74.4559 82.3067C74.4559 82.7685 74.4559 83.23 74.5071 83.6663C74.6611 83.4865 74.7894 83.384 74.9689 83.4098C75.3024 83.4098 75.5589 83.82 75.7639 84.2305C75.8154 83.974 75.9179 83.7945 76.0461 83.6917C76.2769 83.5122 76.5846 83.6147 76.8669 83.6917C77.2516 83.82 77.4824 83.8712 77.6364 83.5892C77.6621 83.538 77.7389 83.5123 77.8159 83.538C77.8671 83.5635 77.8929 83.6405 77.8671 83.7175C77.6106 84.2047 77.1491 84.051 76.7899 83.9482C76.5591 83.8712 76.3284 83.7945 76.1744 83.897C76.0461 83.9995 75.9691 84.256 75.9436 84.692L75.9179 85.2308Z" fill="#A8BBDE"/>
<path d="M59.3215 95.5673C59.2702 95.5673 59.1932 95.516 59.1932 95.4647C59.1162 95.003 58.8085 94.5155 58.5262 94.0795C58.398 93.8745 58.27 93.6947 58.1672 93.5152C58.1417 93.464 58.1672 93.387 58.2185 93.3357C58.27 93.31 58.3467 93.3357 58.398 93.387C58.5007 93.5665 58.6032 93.7462 58.7315 93.9257C59.0392 94.3872 59.3727 94.9003 59.4497 95.4133C59.4755 95.4903 59.424 95.5673 59.3215 95.5673C59.3472 95.5673 59.3472 95.5673 59.3215 95.5673Z" fill="#FDD17B"/>
<path d="M60.9129 94.7722C60.8616 94.7722 60.7846 94.721 60.7846 94.6695C60.7076 93.977 60.3229 93.2845 59.7074 92.669C59.6561 92.6177 59.6561 92.5407 59.7074 92.4895C59.7586 92.438 59.8356 92.438 59.8869 92.4895C60.5281 93.1307 60.9384 93.9 61.0411 94.644C61.0666 94.6952 61.0154 94.7722 60.9129 94.7722C60.9384 94.7722 60.9384 94.7722 60.9129 94.7722Z" fill="#FDD17B"/>
<path d="M76.9443 60.197C76.9443 60.197 76.303 62.2233 74.9693 62.1208C74.0203 62.0438 73.7895 60.4277 73.7383 60.3765L76.9443 60.197Z" fill="white"/>
<path d="M74.3021 55.7595C74.5856 55.7595 74.8151 55.53 74.8151 55.2467C74.8151 54.9632 74.5856 54.7337 74.3021 54.7337C74.0188 54.7337 73.7891 54.9632 73.7891 55.2467C73.7891 55.53 74.0188 55.7595 74.3021 55.7595Z" fill="#464646"/>
<path d="M79.6888 54.3745C79.972 54.3745 80.2018 54.145 80.2018 53.8615C80.2018 53.5783 79.972 53.3488 79.6888 53.3488C79.4055 53.3488 79.1758 53.5783 79.1758 53.8615C79.1758 54.145 79.4055 54.3745 79.6888 54.3745Z" fill="#464646"/>
<path d="M72.4033 54.631C72.3263 54.631 72.2493 54.6055 72.1981 54.5285C72.0956 54.4257 72.1211 54.2463 72.2238 54.1693L74.8656 51.9378C74.9681 51.8353 75.1478 51.861 75.2246 51.9635C75.3273 52.066 75.3016 52.2457 75.1991 52.3225L72.5571 54.554C72.5316 54.6055 72.4803 54.631 72.4033 54.631Z" fill="#464646"/>
<path d="M81.6368 53.3488C81.6113 53.3488 81.5855 53.3488 81.5598 53.3488L78.7128 52.528C78.5845 52.4765 78.5075 52.3483 78.5333 52.22C78.5845 52.0918 78.7128 52.015 78.841 52.0405L81.688 52.8613C81.8163 52.9128 81.8933 53.041 81.8675 53.169C81.842 53.2718 81.7395 53.3488 81.6368 53.3488Z" fill="#464646"/>
<path d="M71.9157 53.5025C71.7874 53.5025 71.6592 53.4 71.6592 53.2717C71.6592 53.1177 71.7619 53.0152 71.8902 52.9895L74.7884 52.81C74.9167 52.81 75.0449 52.9127 75.0707 53.041C75.0707 53.1947 74.9679 53.2975 74.8397 53.323L71.9157 53.5025C71.9414 53.5025 71.9414 53.5025 71.9157 53.5025Z" fill="#464646"/>
<path d="M77.3801 58.4015C77.3288 58.4015 77.2776 58.3502 77.2518 58.2987C77.2261 58.222 77.2776 58.1705 77.3543 58.145L80.2016 57.555C80.2783 57.5292 80.3298 57.5807 80.3553 57.6575C80.3811 57.7345 80.3298 57.7857 80.2528 57.8115L77.4056 58.4015C77.3801 58.4015 77.3801 58.4015 77.3801 58.4015Z" fill="#464646"/>
<path d="M65.2477 56.2213C65.2222 56.2213 65.1964 56.2213 65.1707 56.1955C65.1194 56.1443 65.0939 56.0673 65.1452 56.016C65.1707 55.9903 65.5554 55.4775 66.4532 55.657C66.5302 55.6825 66.5559 55.734 66.5559 55.8108C66.5302 55.8878 66.4789 55.9135 66.4019 55.9135C65.6837 55.7595 65.3759 56.1443 65.3759 56.17C65.3247 56.2213 65.2734 56.2213 65.2477 56.2213Z" fill="#464646"/>
<path d="M66.1458 56.6575C66.0688 56.6575 66.0175 56.5805 66.0175 56.5035C66.043 56.2215 65.5045 55.7085 65.1453 55.452C65.094 55.4005 65.0685 55.3238 65.1198 55.2723C65.171 55.221 65.248 55.1955 65.2993 55.2467C65.4018 55.3237 66.3253 56.0163 66.274 56.5293C66.274 56.606 66.2225 56.6575 66.1458 56.6575Z" fill="#464646"/>
<path d="M69.6332 49.9115L68.6329 55.144C68.6329 55.144 66.2732 54.195 65.2472 54.118C63.5799 52.9895 66.7862 49.142 66.7862 49.142L69.6332 49.9115Z" fill="#3913B8"/>
<path d="M77.4817 45.2437L77.251 45.141C77.4305 44.7562 77.8152 44.551 78.1487 44.3715C78.2512 44.3202 78.3795 44.2432 78.482 44.192C79.8415 43.2942 81.6112 42.0375 83.099 40.4472C84.1762 39.3187 85.0995 38.1132 84.7662 36.0612C84.7147 35.7791 84.5865 35.6252 84.33 35.5482C83.1502 35.2148 80.1237 37.036 79.2772 38.0105L79.072 37.8567C79.9697 36.805 83.0477 34.9326 84.3815 35.3174C84.7405 35.42 84.9457 35.6765 85.0227 36.0355C85.3817 38.19 84.407 39.447 83.3042 40.6267C81.7907 42.2427 80.021 43.4995 78.636 44.4227C78.5335 44.4997 78.4052 44.551 78.3025 44.628C77.969 44.7562 77.6357 44.9357 77.4817 45.2437Z" fill="#FDD17B"/>
<path d="M98.3595 91.1555C98.3595 91.1555 98.334 91.1555 98.3595 91.1555C98.103 91.0788 97.7182 90.9505 97.2565 90.7965C96.282 90.4375 94.9225 89.95 94.2812 89.95C94.23 89.95 94.1787 89.8988 94.1787 89.8475C94.1787 89.7963 94.23 89.7448 94.2812 89.7448C94.9737 89.7448 96.282 90.2065 97.3335 90.5912C97.7695 90.7452 98.1542 90.899 98.3852 90.9505C98.4365 90.976 98.462 91.0273 98.462 91.0788C98.4365 91.13 98.4107 91.1555 98.3595 91.1555Z" fill="#3913B8"/>
<path d="M99.4886 92.874C99.4629 92.874 99.4629 92.874 99.4886 92.874C99.2321 92.7972 98.8986 92.669 98.5139 92.515C97.6161 92.156 96.3594 91.643 95.4104 91.643C95.3591 91.643 95.3076 91.5917 95.3076 91.5402C95.3076 91.489 95.3591 91.4377 95.4104 91.4377C96.4106 91.4377 97.6674 91.9507 98.5909 92.3097C98.9756 92.4637 99.2834 92.592 99.5141 92.6432C99.5656 92.669 99.5911 92.7202 99.5911 92.7715C99.5656 92.8485 99.5141 92.874 99.4886 92.874Z" fill="#3913B8"/>
<path d="M79.0977 105.827C79.0977 105.827 101.618 104.391 102.823 107.161C104.029 109.931 104.036 137.201 104.036 137.201L97.5154 139.042L94.8719 111.649L79.0977 105.827Z" fill="#FDD17B"/>
<path d="M79.0977 105.827C79.0977 105.827 101.618 104.391 102.823 107.161C104.029 109.931 104.036 137.201 104.036 137.201L97.5154 139.042L94.8719 111.649L79.0977 105.827Z" fill="white" fill-opacity="0.43"/>
<path d="M104.028 136.991C104.028 136.991 104.028 138.068 104.028 138.504C104.028 139.504 104.028 140.068 104.028 140.068L97.3851 139.419L97.2568 136.913L104.028 136.991Z" fill="#F9C5C8"/>
<path d="M104.029 139.017V143.172L111.287 146.327C111.903 146.583 111.698 147.481 111.057 147.481L97.873 147.404L97.3857 139.068L104.029 139.017Z" fill="#F2F1F8"/>
<path d="M114.108 150.533H93.2812C92.8452 150.533 92.5117 150.2 92.5117 149.764C92.5117 149.328 92.8452 148.995 93.2812 148.995H114.108C114.544 148.995 114.878 149.328 114.878 149.764C114.878 150.2 114.519 150.533 114.108 150.533Z" fill="#3913B8"/>
<path d="M101.207 149.251L105.747 143.583C105.747 143.583 112.082 145.993 114.006 147.481C114.981 148.251 114.391 149.815 113.16 149.764L101.207 149.251Z" fill="#3913B8"/>
<path fill-rule="evenodd" clip-rule="evenodd" d="M114.365 149.036C114.669 149.138 114.878 149.419 114.878 149.764C114.878 150.2 114.519 150.533 114.108 150.533H93.2812C92.8452 150.533 92.5117 150.2 92.5117 149.764C92.5117 149.328 92.8452 148.995 93.2812 148.995H101.412L105.746 143.583C105.746 143.583 112.082 145.993 114.005 147.481C114.529 147.894 114.601 148.537 114.365 149.036Z" fill="white" fill-opacity="0.19"/>
<path d="M56.6807 105.314V110.623C56.6807 113.701 59.1944 116.215 62.2724 116.215H86.2029C87.4854 116.215 88.5114 117.241 88.5114 118.523V149.097C88.5114 149.943 89.1784 150.61 90.0247 150.61H107.004C107.646 150.61 110.082 149.79 109.569 149.405L97.5912 143.095L97.0269 113.008C96.9757 109.674 94.4107 106.929 91.1019 106.622L77.4309 105.339H56.6807V105.314Z" fill="#FDD17B"/>
<path d="M97.5915 139.017H88.5117V140.505H97.5915V139.017Z" fill="#F8B8BB"/>
<path d="M88.5117 140.505V149.097C88.5117 149.943 89.1785 150.611 90.025 150.611H107.005C107.646 150.611 110.083 149.79 109.57 149.405L97.5915 143.095V140.505H88.5117Z" fill="white"/>
<path d="M97.5911 139.145H88.5111C88.4343 139.145 88.3828 139.094 88.3828 139.017C88.3828 138.94 88.4343 138.889 88.5111 138.889H97.5911C97.6681 138.889 97.7193 138.94 97.7193 139.017C97.7193 139.094 97.6681 139.145 97.5911 139.145Z" fill="#3913B8"/>
<path d="M97.5911 140.761H88.5111C88.4343 140.761 88.3828 140.71 88.3828 140.633C88.3828 140.556 88.4343 140.505 88.5111 140.505H97.5911C97.6681 140.505 97.7193 140.556 97.7193 140.633C97.7193 140.71 97.6681 140.761 97.5911 140.761Z" fill="#3913B8"/>
<path d="M104.055 137.068H97.5911C97.5141 137.068 97.4629 137.016 97.4629 136.939C97.4629 136.862 97.5141 136.811 97.5911 136.811H104.029C104.106 136.811 104.157 136.862 104.157 136.939C104.157 137.016 104.106 137.068 104.055 137.068Z" fill="#3913B8"/>
<path d="M104.055 139.145H97.5911C97.5141 139.145 97.4629 139.094 97.4629 139.017C97.4629 138.94 97.5141 138.889 97.5911 138.889H104.029C104.106 138.889 104.157 138.94 104.157 139.017C104.157 139.094 104.106 139.145 104.055 139.145Z" fill="#3913B8"/>
<path d="M109.647 151.918H88.8193C88.3833 151.918 88.0498 151.585 88.0498 151.149C88.0498 150.713 88.3833 150.38 88.8193 150.38H109.647C110.083 150.38 110.416 150.713 110.416 151.149C110.416 151.585 110.057 151.918 109.647 151.918Z" fill="#3913B8"/>
<path d="M96.7705 150.636L101.31 144.967C101.31 144.967 107.646 147.378 109.569 148.866C110.544 149.635 109.954 151.2 108.723 151.149L96.7705 150.636Z" fill="#3913B8"/>
<path d="M66.4015 111.803C66.2475 111.803 66.0938 111.777 65.9398 111.752C64.8368 111.521 64.8883 110.161 64.9138 109.161C64.9138 109.007 64.9138 108.853 64.9138 108.725C64.9138 108.648 64.965 108.597 65.042 108.597C65.119 108.597 65.1703 108.648 65.1703 108.725C65.1703 108.853 65.1703 109.007 65.1703 109.161C65.1448 110.11 65.119 111.316 65.991 111.495C66.5298 111.623 67.0683 111.495 67.5813 111.136C68.915 110.238 69.6845 108.212 69.7358 107.853C69.7358 107.776 69.8128 107.725 69.8898 107.75C69.9668 107.75 70.018 107.827 69.9923 107.904C69.8898 108.443 69.0433 110.469 67.7353 111.367C67.2993 111.675 66.8633 111.803 66.4015 111.803Z" fill="#3913B8"/>
<path d="M92.4348 133.99C92.3578 133.99 92.3065 133.939 92.3065 133.862V115.83C92.3065 113.855 90.7163 112.265 88.7413 112.265L69.3763 111.701C69.2993 111.701 69.248 111.649 69.248 111.572C69.248 111.496 69.3248 111.444 69.3763 111.444L88.7413 112.008C90.8445 112.008 92.563 113.727 92.563 115.83V133.862C92.563 133.913 92.5118 133.99 92.4348 133.99Z" fill="#3913B8"/>
<path d="M90.589 145.044C90.5377 145.044 90.4865 145.019 90.4607 144.968C90.4352 144.891 90.4607 144.839 90.5377 144.814C90.743 144.737 91.1535 144.609 91.4867 144.711C91.5637 144.737 91.5895 144.814 91.5637 144.865C91.5382 144.942 91.4612 144.968 91.41 144.942C91.2302 144.891 90.9482 144.916 90.6405 145.044C90.6147 145.044 90.589 145.044 90.589 145.044Z" fill="#3913B8"/>
<path d="M90.9224 145.993C90.8712 145.993 90.8199 145.968 90.7942 145.917C90.7687 145.865 90.7942 145.788 90.8454 145.737L90.9224 145.711C91.1277 145.609 91.2817 145.532 91.5382 145.557C91.6149 145.557 91.6664 145.609 91.6664 145.686C91.6664 145.763 91.5894 145.814 91.5382 145.814C91.3329 145.814 91.2047 145.865 91.0252 145.942L90.9482 145.968C90.9737 145.993 90.9482 145.993 90.9224 145.993Z" fill="#3913B8"/>
<path d="M96.3078 143.531C96.2563 143.531 96.2051 143.505 96.1796 143.454C96.1538 143.377 96.1796 143.326 96.2563 143.275C96.3078 143.249 96.3591 143.223 96.4103 143.197C96.5128 143.146 96.6156 143.095 96.7693 143.044C96.8721 143.018 96.9746 143.018 97.0773 143.018C97.2311 143.018 97.3593 143.018 97.4618 142.941C97.5133 142.89 97.5901 142.916 97.6416 142.967C97.6928 143.018 97.6671 143.095 97.6158 143.146C97.4363 143.275 97.2311 143.275 97.0773 143.275C97.0003 143.275 96.8976 143.274 96.8208 143.3C96.7181 143.326 96.6411 143.377 96.5386 143.428C96.4873 143.454 96.4361 143.48 96.3591 143.505C96.3333 143.531 96.3078 143.531 96.3078 143.531Z" fill="#3913B8"/>
<path d="M101.747 142.839C101.695 142.839 101.644 142.813 101.644 142.762C101.618 142.71 101.644 142.633 101.695 142.582C101.747 142.557 101.798 142.531 101.849 142.48C101.977 142.377 102.131 142.274 102.311 142.3C102.388 142.326 102.413 142.377 102.413 142.454C102.388 142.531 102.336 142.557 102.259 142.557C102.208 142.531 102.106 142.608 102.003 142.684C101.952 142.736 101.875 142.787 101.823 142.813C101.798 142.838 101.772 142.839 101.747 142.839Z" fill="#3913B8"/>
<path d="M101.899 143.403C101.874 143.403 101.848 143.403 101.822 143.377C101.771 143.326 101.745 143.249 101.797 143.198C101.899 143.044 102.13 142.864 102.31 142.787C102.387 142.762 102.438 142.813 102.464 142.864C102.489 142.941 102.438 142.992 102.387 143.018C102.258 143.069 102.079 143.224 102.002 143.326C102.002 143.377 101.951 143.403 101.899 143.403Z" fill="#3913B8"/>
<path d="M78.0456 81.5628C78.0456 81.5628 77.8406 77.2022 76.9941 75.9967C76.9941 75.9967 81.2261 81.8963 81.2261 82.5888L78.0456 81.5628Z" fill="black" fill-opacity="0.81"/>
<path d="M111.928 80.0495C111.826 80.0495 111.723 80.0238 111.621 79.998C111.056 79.8185 110.697 79.0747 110.723 78.4847C110.723 77.7665 111.261 77.2535 111.518 77.0228C112.287 76.3045 113.467 75.7915 114.698 75.689C114.801 74.2528 114.801 72.0213 114.827 69.5588C114.852 64.9678 114.878 59.7865 115.442 57.401L115.699 57.4525C115.135 59.7865 115.109 64.9678 115.083 69.5588C115.058 71.9955 115.058 74.2013 114.955 75.6633C115.699 75.6378 116.443 75.7915 117.135 76.1507C117.212 76.202 117.315 76.2532 117.392 76.3045C117.802 75.5607 118.366 75.0477 118.623 74.7912C121.136 72.4315 125.42 72.765 126.677 72.919L126.651 73.1755C125.42 73.0215 121.239 72.7137 118.828 74.9707C118.571 75.2017 118.033 75.7147 117.648 76.4327C118.443 76.9715 119.11 77.7923 119.315 78.4593C119.392 78.7413 119.392 78.972 119.29 79.126C119.187 79.3055 118.956 79.4595 118.648 79.5365C118.212 79.6132 117.751 79.5365 117.469 79.3055C116.956 78.9207 116.981 78.2283 116.981 77.8948C116.981 77.3818 117.109 76.9457 117.315 76.5355C117.238 76.4842 117.135 76.4328 117.058 76.3815C116.417 76.048 115.699 75.8942 114.981 75.9197C114.929 76.5097 114.878 76.9457 114.775 77.2022C114.262 78.613 112.954 80.0495 111.928 80.0495ZM114.673 75.9455C113.519 76.0225 112.416 76.5097 111.698 77.2022C111.441 77.4332 110.979 77.8692 110.979 78.4847C110.979 78.972 111.261 79.6133 111.698 79.7415C112.518 79.998 113.98 78.6388 114.493 77.1253C114.57 76.9203 114.647 76.5098 114.673 75.9455ZM117.494 76.715C117.315 77.074 117.212 77.4845 117.212 77.9463C117.212 78.2283 117.212 78.8437 117.597 79.1517C117.828 79.3312 118.212 79.4083 118.571 79.3313C118.802 79.28 118.956 79.1773 119.033 79.049C119.084 78.9465 119.084 78.767 119.033 78.5618C118.879 78.0488 118.289 77.2535 117.494 76.715Z" fill="#3913B8"/>
<path d="M115.879 61.2743C113.801 61.2743 112.134 59.5815 112.134 57.5295C112.134 55.4775 113.827 53.7848 115.879 53.7848C117.931 53.7848 119.623 55.4775 119.623 57.5295C119.623 59.5815 117.931 61.2743 115.879 61.2743ZM115.879 54.0155C113.955 54.0155 112.39 55.58 112.39 57.5037C112.39 59.4275 113.955 60.992 115.879 60.992C117.802 60.992 119.367 59.4275 119.367 57.5037C119.367 55.58 117.802 54.0155 115.879 54.0155Z" fill="#3913B8"/>
<path d="M115.545 57.8885C115.856 57.8885 116.109 57.636 116.109 57.3242C116.109 57.0127 115.856 56.76 115.545 56.76C115.233 56.76 114.98 57.0127 114.98 57.3242C114.98 57.636 115.233 57.8885 115.545 57.8885Z" fill="#3913B8"/>
<path d="M159.921 42.8112C160.12 41.6382 159.636 40.5777 158.84 40.4425C158.044 40.3072 157.237 41.1487 157.038 42.322C156.839 43.495 157.322 44.5555 158.119 44.6907C158.915 44.826 159.721 43.9845 159.921 42.8112Z" fill="#A8BBDE"/>
<path d="M146.581 49.3217C146.504 49.3217 146.478 49.296 146.478 49.2705C146.119 48.86 149.71 42.0117 149.736 41.9347C150.121 41.4475 150.659 41.0882 151.249 40.9345L159.277 38.8055C160.124 38.5747 161.021 38.7542 161.714 39.293C162.407 39.8315 162.817 40.6267 162.817 41.5245V43.448C162.817 44.987 161.611 46.2183 160.072 46.2438L152.096 46.449C147.863 48.937 146.837 49.3217 146.581 49.3217ZM159.97 38.9852C159.765 38.9852 159.534 39.0107 159.303 39.062L151.275 41.191C150.736 41.3447 150.249 41.6528 149.915 42.0888C149.531 42.576 146.837 48.1932 146.658 49.0652C147.197 48.937 149.71 47.552 151.916 46.2182L151.942 46.1925H151.967L159.995 45.9873C161.381 45.9618 162.483 44.8333 162.483 43.448V41.5245C162.483 40.7292 162.124 39.9855 161.483 39.498C161.073 39.1647 160.534 38.9852 159.97 38.9852Z" fill="#3913B8"/>
<path d="M155.352 42.294L152.095 42.7815C151.915 42.807 151.762 42.6788 151.762 42.4993C151.762 42.3455 151.864 42.2428 152.018 42.2173L155.275 41.7297C155.455 41.7042 155.609 41.8325 155.609 42.012C155.583 42.1402 155.481 42.2685 155.352 42.294Z" fill="#3913B8"/>
<path d="M155.352 43.9867L152.095 44.474C151.915 44.4997 151.762 44.3715 151.762 44.192C151.762 44.038 151.864 43.9355 152.018 43.9097L155.275 43.4225C155.455 43.3967 155.609 43.525 155.609 43.7045C155.583 43.8327 155.481 43.961 155.352 43.9867Z" fill="#3913B8"/>
</svg>
